# xmcd
# Track frame offsets:
# 150
# 11335
# 28210
# 41395
# 57260
# 71585
# 86225
# 97465
# 111270
# 121475
#
# Disc length: 1822 seconds
# Revision: 0
# Processed by: cddbd v1.5.1PL2 Copyright (c) Steve Scherf et al.
# Submitted via: VisiTrax 2.9.10.228 - For more info visit www.synapsa.com
#
DISCID=8b071c0a
DTITLE=Buttsworth.Neil - Settin' The Woods On Fire.
DYEAR=2003
DGENRE=Country
TTITLE0=Settin' The woods On Fire.
TTITLE1=Sensuous Woman.
TTITLE2=Streets Of Bakersfield.
TTITLE3=If You Can Touch Her At All.
TTITLE4=Footsteps To Nowhere.
TTITLE5=Cry.
TTITLE6=I Can't Help It.
TTITLE7=I've Got A Tiger By The Tail.
TTITLE8=Cryin' Time.
TTITLE9=Cowboys and Truckers.
EXTD=
EXTT0=
EXTT1=
EXTT2=
EXTT3=
EXTT4=
EXTT5=
EXTT6=
EXTT7=
EXTT8=
EXTT9=
PLAYORDER=
